<svg width="50" height="50" viewBox="0 0 50 50" fill="none" xmlns="http://www.w3.org/2000/svg">
<rect width="50" height="50" rx="14" fill="#F97315"/>
<path d="M24.5 20.3333C30.0919 20.3333 34.625 18.7663 34.625 16.8333C34.625 14.9003 30.0919 13.3333 24.5 13.3333C18.9081 13.3333 14.375 14.9003 14.375 16.8333C14.375 18.7663 18.9081 20.3333 24.5 20.3333Z" stroke="white" stroke-width="2" stroke-linecap="round" stroke-linejoin="round"/>
<path d="M14.375 16.8333V33.1667C14.375 34.0949 15.4417 34.9852 17.3405 35.6415C19.2393 36.2979 21.8147 36.6667 24.5 36.6667C27.1853 36.6667 29.7606 36.2979 31.6595 35.6415C33.5583 34.9852 34.625 34.0949 34.625 33.1667V16.8333" stroke="white" stroke-width="2" stroke-linecap="round" stroke-linejoin="round"/>
<path d="M14.375 25C14.375 25.9283 15.4417 26.8185 17.3405 27.4749C19.2393 28.1313 21.8147 28.5 24.5 28.5C27.1853 28.5 29.7606 28.1313 31.6595 27.4749C33.5583 26.8185 34.625 25.9283 34.625 25" stroke="white" stroke-width="2" stroke-linecap="round" stroke-linejoin="round"/>
<g clip-path="url(#clip0_2015_30)">
<rect x="29.3213" y="29.5" width="7.71429" height="8" rx="1" fill="white"/>
<path d="M31.8589 35.4618C31.6501 35.4618 31.464 35.4256 31.3007 35.3531C31.1373 35.2793 31.0081 35.1706 30.9129 35.0271C30.8192 34.8822 30.7723 34.7018 30.7723 34.4859C30.7723 34.3041 30.8057 34.1514 30.8724 34.0278C30.9392 33.9043 31.0301 33.8048 31.1452 33.7295C31.2602 33.6543 31.3909 33.5974 31.5372 33.5591C31.6849 33.5207 31.8398 33.4937 32.0017 33.4781C32.192 33.4582 32.3454 33.4398 32.4619 33.4227C32.5784 33.4043 32.6629 33.3773 32.7155 33.3418C32.768 33.3062 32.7943 33.2537 32.7943 33.1841V33.1713C32.7943 33.0364 32.7517 32.932 32.6665 32.8581C32.5827 32.7842 32.4633 32.7473 32.3085 32.7473C32.1452 32.7473 32.0152 32.7835 31.9186 32.856C31.822 32.927 31.7581 33.0165 31.7268 33.1244L30.8873 33.0562C30.93 32.8574 31.0138 32.6855 31.1388 32.5406C31.2638 32.3943 31.425 32.2821 31.6224 32.204C31.8213 32.1244 32.0514 32.0847 32.3128 32.0847C32.4946 32.0847 32.6686 32.106 32.8348 32.1486C33.0024 32.1912 33.1508 32.2572 33.2801 32.3467C33.4108 32.4362 33.5138 32.5513 33.589 32.6919C33.6643 32.8311 33.702 32.998 33.702 33.1926V35.4H32.8412V34.9462H32.8156C32.7631 35.0484 32.6927 35.1386 32.6047 35.2168C32.5166 35.2935 32.4108 35.3538 32.2872 35.3979C32.1636 35.4405 32.0209 35.4618 31.8589 35.4618ZM32.1189 34.8354C32.2524 34.8354 32.3703 34.8091 32.4726 34.7565C32.5748 34.7026 32.6551 34.6301 32.7133 34.5392C32.7716 34.4483 32.8007 34.3453 32.8007 34.2302V33.8829C32.7723 33.9014 32.7332 33.9185 32.6835 33.9341C32.6352 33.9483 32.5805 33.9618 32.5194 33.9746C32.4584 33.9859 32.3973 33.9966 32.3362 34.0065C32.2751 34.0151 32.2197 34.0229 32.17 34.03C32.0635 34.0456 31.9704 34.0704 31.8909 34.1045C31.8113 34.1386 31.7496 34.1848 31.7055 34.243C31.6615 34.2999 31.6395 34.3709 31.6395 34.4561C31.6395 34.5797 31.6842 34.6741 31.7737 34.7395C31.8646 34.8034 31.9797 34.8354 32.1189 34.8354ZM34.4062 35.4V32.1273H35.3138V35.4H34.4062ZM34.8621 31.7054C34.7272 31.7054 34.6114 31.6606 34.5148 31.5712C34.4197 31.4802 34.3721 31.3716 34.3721 31.2452C34.3721 31.1202 34.4197 31.0129 34.5148 30.9234C34.6114 30.8325 34.7272 30.7871 34.8621 30.7871C34.9971 30.7871 35.1121 30.8325 35.2073 30.9234C35.3039 31.0129 35.3522 31.1202 35.3522 31.2452C35.3522 31.3716 35.3039 31.4802 35.2073 31.5712C35.1121 31.6606 34.9971 31.7054 34.8621 31.7054Z" fill="#F97315"/>
</g>
<defs>
<clipPath id="clip0_2015_30">
<rect x="29.3213" y="29.5" width="7.71429" height="8" rx="1" fill="white"/>
</clipPath>
</defs>
</svg>
